<svg xmlns="http://www.w3.org/2000/svg" xmlns:xlink="http://www.w3.org/1999/xlink" width="500" zoomAndPan="magnify" viewBox="0 0 375 374.999991" height="500" preserveAspectRatio="xMidYMid meet" version="1.0"><defs><clipPath id="ddfe6d5b74"><path d="M 3.28125 3.28125 L 371.71875 3.28125 L 371.71875 371.71875 L 3.28125 371.71875 Z M 3.28125 3.28125 " clip-rule="nonzero"/></clipPath><clipPath id="9d5bae1c70"><path d="M 187.5 3.28125 C 85.757812 3.28125 3.28125 85.757812 3.28125 187.5 C 3.28125 289.242188 85.757812 371.71875 187.5 371.71875 C 289.242188 371.71875 371.71875 289.242188 371.71875 187.5 C 371.71875 85.757812 289.242188 3.28125 187.5 3.28125 Z M 187.5 3.28125 " clip-rule="nonzero"/></clipPath><clipPath id="f63a42e20e"><path d="M 37.5 91.5625 L 337.5 91.5625 L 337.5 283.5625 L 37.5 283.5625 Z M 37.5 91.5625 " clip-rule="nonzero"/></clipPath></defs><g clip-path="url(#ddfe6d5b74)"><g clip-path="url(#9d5bae1c70)"><path fill="#000000" d="M 3.28125 3.28125 L 371.71875 3.28125 L 371.71875 371.71875 L 3.28125 371.71875 Z M 3.28125 3.28125 " fill-opacity="1" fill-rule="nonzero"/></g></g><g clip-path="url(#f63a42e20e)"><path fill="#fafbf6" d="M 136.613281 91.5625 L 77.144531 91.5625 L 94.765625 109.183594 L 280.234375 109.183594 L 297.894531 91.5625 Z M 256.007812 148.121094 L 280.941406 148.121094 L 263.320312 165.742188 L 238.386719 165.742188 L 238.386719 237.511719 L 220.765625 255.132812 L 210.128906 265.8125 L 192.507812 283.433594 L 192.507812 119.863281 L 284.308594 119.863281 L 294.988281 109.183594 L 312.605469 91.5625 L 337.5 91.5625 L 319.878906 109.183594 L 309.242188 119.863281 L 291.621094 137.484375 L 210.128906 137.484375 L 210.128906 240.878906 L 220.765625 230.199219 L 220.765625 148.121094 Z M 118.992188 148.121094 L 94.058594 148.121094 L 111.679688 165.742188 L 136.613281 165.742188 L 136.613281 237.511719 L 182.535156 283.433594 L 182.535156 119.863281 L 90.691406 119.863281 L 80.054688 109.183594 L 62.433594 91.5625 L 37.5 91.5625 L 83.421875 137.484375 L 164.914062 137.484375 L 164.914062 240.878906 L 154.234375 230.199219 L 154.234375 148.121094 Z M 118.992188 148.121094 " fill-opacity="1" fill-rule="evenodd"/></g></svg>